<?xml version="1.0" encoding="UTF-8" standalone="no"?>
<svg
   xmlns:dc="http://purl.org/dc/elements/1.1/"
   xmlns:cc="http://creativecommons.org/ns#"
   xmlns:rdf="http://www.w3.org/1999/02/22-rdf-syntax-ns#"
   xmlns:svg="http://www.w3.org/2000/svg"
   xmlns="http://www.w3.org/2000/svg"
   xmlns:sodipodi="http://sodipodi.sourceforge.net/DTD/sodipodi-0.dtd"
   xmlns:inkscape="http://www.inkscape.org/namespaces/inkscape"
   inkscape:version="1.0 (4035a4fb49, 2020-05-01)"
   sodipodi:docname="lock.svg"
   version="1.1"
   width="512"
   viewBox="0 0 24 24"
   height="512"
   enable-background="new 0 0 24 24"
   id="bold">
  <metadata
     id="metadata9">
    <rdf:RDF>
      <cc:Work
         rdf:about="">
        <dc:format>image/svg+xml</dc:format>
        <dc:type
           rdf:resource="http://purl.org/dc/dcmitype/StillImage" />
      </cc:Work>
    </rdf:RDF>
  </metadata>
  <defs
     id="defs7" />
  <sodipodi:namedview
     inkscape:current-layer="bold"
     inkscape:window-maximized="1"
     inkscape:window-y="-11"
     inkscape:window-x="-11"
     inkscape:cy="256"
     inkscape:cx="256"
     inkscape:zoom="1.4355469"
     showgrid="false"
     id="namedview5"
     inkscape:window-height="986"
     inkscape:window-width="1920"
     inkscape:pageshadow="2"
     inkscape:pageopacity="0"
     guidetolerance="10"
     gridtolerance="10"
     objecttolerance="10"
     borderopacity="1"
     bordercolor="#666666"
     pagecolor="#ffffff" />
  <path
     style="fill:#0381ff;fill-opacity:1"
     id="path2"
     d="m18.75 9h-.75v-3c0-3.309-2.691-6-6-6s-6 2.691-6 6v3h-.75c-1.24 0-2.25 1.009-2.25 2.25v10.5c0 1.241 1.01 2.25 2.25 2.25h13.5c1.24 0 2.25-1.009 2.25-2.25v-10.5c0-1.241-1.01-2.25-2.25-2.25zm-10.75-3c0-2.206 1.794-4 4-4s4 1.794 4 4v3h-8zm5 10.722v2.278c0 .552-.447 1-1 1s-1-.448-1-1v-2.278c-.595-.347-1-.985-1-1.722 0-1.103.897-2 2-2s2 .897 2 2c0 .737-.405 1.375-1 1.722z" />
</svg>
