<svg id="T_Shirt_Illustration" data-name="T Shirt Illustration" xmlns="http://www.w3.org/2000/svg" xmlns:xlink="http://www.w3.org/1999/xlink" width="776.416" height="603.387" viewBox="0 0 776.416 603.387">
  <defs>
    <clipPath id="clip-path">
      <rect width="23" height="444" fill="none"/>
    </clipPath>
  </defs>
  <g id="g950">
    <g id="g1224">
      <path id="rect1675" d="M402.927,648.511H799.366v502.339H402.927Z" transform="translate(-213.111 -547.462)" fill="#d3e9ff"/>
      <path id="path1090" d="M355.96,641.758l189.775-18.309,121.223.274c26.734,18.8,44.115,31.028,58.849,36.669,12.6,4.824,23.26,4.83,36.18.006,15.156-5.661,33.42-17.969,61.56-36.949L941,623.387l191.378,18.371-1.987,84.289-188.094-1.412H798.924l-.088,502.139H687.509l.965-502.164H545.768l-187.823,1.437Z" transform="translate(-355.96 -623.387)" fill="#0381ff"/>
    </g>
    <path id="path919-4" d="M116.6,127.228,61.28,196.039V161.824l55.315-34.6" transform="translate(350.958 -127.128)" fill="#005cb8"/>
    <path id="path919-4-2" data-name="path919-4" d="M61.28,127.228,115.868,195.8V161.7L61.28,127.228" transform="translate(249.686 -126.889)" fill="#005cb8"/>
  </g>
  <g id="Repeat_Grid_2" data-name="Repeat Grid 2" transform="translate(376.909 141.932)" clip-path="url(#clip-path)">
    <g transform="translate(-415 -370)">
      <g id="Ellipse_2" data-name="Ellipse 2" transform="translate(415 370)" fill="#fff" stroke="#707070" stroke-width="1">
        <circle cx="11.5" cy="11.5" r="11.5" stroke="none"/>
        <circle cx="11.5" cy="11.5" r="11" fill="none"/>
      </g>
    </g>
    <g transform="translate(-415 -274)">
      <g id="Ellipse_2-2" data-name="Ellipse 2" transform="translate(415 370)" fill="#fff" stroke="#707070" stroke-width="1">
        <circle cx="11.5" cy="11.5" r="11.5" stroke="none"/>
        <circle cx="11.5" cy="11.5" r="11" fill="none"/>
      </g>
    </g>
    <g transform="translate(-415 -178)">
      <g id="Ellipse_2-3" data-name="Ellipse 2" transform="translate(415 370)" fill="#fff" stroke="#707070" stroke-width="1">
        <circle cx="11.5" cy="11.5" r="11.5" stroke="none"/>
        <circle cx="11.5" cy="11.5" r="11" fill="none"/>
      </g>
    </g>
    <g transform="translate(-415 -82)">
      <g id="Ellipse_2-4" data-name="Ellipse 2" transform="translate(415 370)" fill="#fff" stroke="#707070" stroke-width="1">
        <circle cx="11.5" cy="11.5" r="11.5" stroke="none"/>
        <circle cx="11.5" cy="11.5" r="11" fill="none"/>
      </g>
    </g>
    <g transform="translate(-415 14)">
      <g id="Ellipse_2-5" data-name="Ellipse 2" transform="translate(415 370)" fill="#fff" stroke="#707070" stroke-width="1">
        <circle cx="11.5" cy="11.5" r="11.5" stroke="none"/>
        <circle cx="11.5" cy="11.5" r="11" fill="none"/>
      </g>
    </g>
  </g>
</svg>
